# xmcd CD database file generated by Grip 2.94
# 
# Track frame offsets:
#       182
#       19245
#       28930
#       41915
#       51975
#       59977
#       73322
#       91132
#       102207
#       117207
#       128555
#       140432
#       163970
#       178005
#       188305
#       202207
#       215512
#       229632
#       241487
#       253182
#       263357
#       276882
#       284770
# 
# Disc length: 3972 seconds
# 
# Revision: 3
# Processed by: cddbd v1.4b41PL1 Copyright (c) Steve Scherf et al.
# Submitted via: Grip 2.94
# 
DISCID=6a0f8217
DTITLE=Buddy Guy - First Time I Met The Blues
DYEAR=1900
DGENRE=
TTITLE0=First Time I Met The Blues
TTITLE1=Slop Around
TTITLE2=Let Me Love You Baby
TTITLE3=Got To Use Your Head
TTITLE4=I Dig Your Wig
TTITLE5=My Time After A While
TTITLE6=Stick Around
TTITLE7=No Lie
TTITLE8=Night Flight
TTITLE9=My Mother
TTITLE10=Ten Years Ago
TTITLE11=Don't Know Which Way To Go
TTITLE12=Gully Hully
TTITLE13=First Time I Met The Blues (2)
TTITLE14=I got A Strange Feelling
TTITLE15=This Is The End
TTITLE16=Broken Hearted Blues
TTITLE17=You Sure Can't Do
TTITLE18=Try To Quit You Baby
TTITLE19=I Got My Eyes On You
TTITLE20=Sit And Cry (The Blues)
TTITLE21=Untitled Instrumental
TTITLE22=Drinking Muddy Water
EXTD=
EXTT0=
EXTT1=
EXTT2=
EXTT3=
EXTT4=
EXTT5=
EXTT6=
EXTT7=
EXTT8=
EXTT9=
EXTT10=
EXTT11=
EXTT12=
EXTT13=
EXTT14=
EXTT15=
EXTT16=
EXTT17=
EXTT18=
EXTT19=
EXTT20=
EXTT21=
EXTT22=
PLAYORDER=
